# xmcd CD database file
#
# Track frame offsets:
#	150
#	21095
#	42509
#	61218
#	82208
#	104589
#	124175
#	146961
#	165998
#	187963
#
# Disc length: 2778 seconds
#
# Revision: 5
# Processed by: cddbd v1.5.1PL2 Copyright (c) Steve Scherf et al.
# Submitted via: CDex 1.51
#
DISCID=8c0ad80a
DTITLE=ASKA - SCENE
DYEAR=1988
DGENRE=JPop
TTITLE0=伝わりますか
TTITLE1=蘇州夜曲
TTITLE2=予感
TTITLE3=MY Mr. LONELY HEART
TTITLE4=夢はるか
TTITLE5=SCENE
TTITLE6=ふたり
TTITLE7=今でも
TTITLE8=最後の場面
TTITLE9=MIDNIGHT 2 CALL
EXTD=YEAR: 1988
EXTT0=
EXTT1=
EXTT2=
EXTT3=
EXTT4=
EXTT5=
EXTT6=
EXTT7=
EXTT8=
EXTT9=
PLAYORDER=
